<svg width="280" height="92" viewBox="0 0 280 92" fill="none" xmlns="http://www.w3.org/2000/svg">
<mask id="mask0_1_40" style="mask-type:alpha" maskUnits="userSpaceOnUse" x="0" y="22" width="280" height="70">
<path d="M13 38L60 37.5L62.5 22.5H66H73V40H142H280V92H2.02166L0 52.2286L13 38Z" fill="#D9D9D9"/>
</mask>
<g mask="url(#mask0_1_40)">
<path d="M40.144 49.392C38.672 48.88 37.072 48.464 35.344 48.144C33.68 47.76 32.016 47.568 30.352 47.568C24.08 47.568 19.408 49.04 16.336 51.984C13.264 54.928 11.728 59.6 11.728 66C11.728 68.816 12.176 71.344 13.072 73.584C13.968 75.76 15.248 77.616 16.912 79.152C18.576 80.688 20.56 81.872 22.864 82.704C25.232 83.536 27.824 83.952 30.64 83.952C33.648 83.952 36.56 83.44 39.376 82.416C42.256 81.392 44.656 80.048 46.576 78.384L49.936 83.952C49.04 84.72 47.92 85.52 46.576 86.352C45.232 87.184 43.664 87.984 41.872 88.752C40.144 89.456 38.192 90.032 36.016 90.48C33.904 90.928 31.6 91.152 29.104 91.152C24.944 91.152 21.264 90.576 18.064 89.424C14.928 88.208 12.304 86.512 10.192 84.336C8.08 82.096 6.48 79.44 5.392 76.368C4.304 73.232 3.76 69.776 3.76 66C3.76 61.968 4.304 58.384 5.392 55.248C6.544 52.112 8.176 49.488 10.288 47.376C12.4 45.264 14.96 43.664 17.968 42.576C20.976 41.424 24.336 40.848 28.048 40.848C32.784 40.848 36.624 41.264 39.568 42.096C42.576 42.928 45.104 43.856 47.152 44.88L47.056 45.168V58.512H40.144V49.392ZM64.2025 22.8H72.1705V82.896H99.3385V66.192H106.443V90H64.2025V22.8ZM123.205 90V83.568H139.909V48.432H123.205V42H147.589V83.568H163.909V90H123.205ZM137.317 28.368C137.317 26.64 137.893 25.168 139.045 23.952C140.197 22.672 141.669 22.032 143.461 22.032C145.317 22.032 146.853 22.672 148.069 23.952C149.349 25.168 149.989 26.64 149.989 28.368C149.989 30.032 149.349 31.44 148.069 32.592C146.853 33.744 145.317 34.32 143.461 34.32C141.669 34.32 140.197 33.744 139.045 32.592C137.893 31.44 137.317 30.032 137.317 28.368ZM199.68 80.688H200.736L215.808 42H224.16L203.904 90H195.456L174.816 42H183.648L199.68 80.688ZM279.034 83.952C277.882 84.976 276.506 85.936 274.906 86.832C273.37 87.728 271.674 88.496 269.818 89.136C267.962 89.776 266.01 90.256 263.962 90.576C261.978 90.96 259.962 91.152 257.914 91.152C254.074 91.152 250.682 90.576 247.738 89.424C244.794 88.208 242.33 86.512 240.346 84.336C238.362 82.096 236.858 79.44 235.834 76.368C234.81 73.296 234.298 69.84 234.298 66C234.298 61.968 234.842 58.384 235.93 55.248C237.082 52.112 238.714 49.488 240.826 47.376C242.938 45.264 245.498 43.664 248.506 42.576C251.514 41.424 254.874 40.848 258.586 40.848C261.274 40.848 263.93 41.2 266.554 41.904C269.178 42.608 271.482 43.952 273.466 45.936C275.514 47.856 277.082 50.544 278.17 54C279.258 57.392 279.642 61.808 279.322 67.248H242.17C242.17 73.008 243.706 77.328 246.778 80.208C249.914 83.024 254.074 84.432 259.258 84.432C260.986 84.432 262.682 84.24 264.346 83.856C266.074 83.408 267.706 82.896 269.242 82.32C270.778 81.744 272.122 81.104 273.274 80.4C274.49 79.696 275.418 79.056 276.058 78.48L279.034 83.952ZM258.778 47.184C256.666 47.184 254.65 47.408 252.73 47.856C250.874 48.304 249.21 49.072 247.738 50.16C246.33 51.184 245.146 52.56 244.186 54.288C243.29 55.952 242.714 58.032 242.458 60.528H272.314C271.994 56.304 270.618 53.04 268.186 50.736C265.818 48.368 262.682 47.184 258.778 47.184Z" fill="white"/>
</g>
<path d="M142 0V16H150L138 40V24H130L142 0Z" fill="#FF00FF"/>
</svg>
